<?xml version="1.0" encoding="utf-8"?>
<!-- Generator: Adobe Illustrator 17.0.0, SVG Export Plug-In . SVG Version: 6.00 Build 0)  -->
<!DOCTYPE svg PUBLIC "-//W3C//DTD SVG 1.1//EN" "http://www.w3.org/Graphics/SVG/1.1/DTD/svg11.dtd">
<svg version="1.1" id="Layer_1" xmlns="http://www.w3.org/2000/svg" xmlns:xlink="http://www.w3.org/1999/xlink" x="0px" y="0px"
	 width="720px" height="792px" viewBox="0 0 720 792" enable-background="new 0 0 720 792" xml:space="preserve">
<g>
	<g>
		<path fill="#FDFDFE" d="M1.345,363.059c0-120.057,0.025-240.114-0.103-360.17c-0.005-4.241,0.365-5.694,5.31-5.69
			c236.754,0.167,473.507,0.167,710.261,0c4.952-0.004,5.31,1.46,5.306,5.694c-0.126,122.296-0.102,244.593-0.102,366.889
			c-2.956-0.545-3.008-2.806-3.037-5.104c-0.235-18.595-3.743-36.8-7.261-54.927c-3.783-19.492-9.557-38.526-15.943-57.339
			c-2.414-7.113-4.406-14.468-7.706-21.162c-8.32-16.878-15.532-34.283-25.404-50.443c-8.133-13.312-16.03-26.815-25.609-39.062
			c-16.348-20.902-34.046-40.584-54.177-58.124c-25.355-22.091-53.126-40.335-83.439-54.566
			C460.639,10.838,419.583,0.932,376.765-1.136c-28.477-1.376-56.74,0.995-84.623,7.037c-40.832,8.848-78.633,25.093-113.498,47.968
			c-23.44,15.38-44.722,33.458-63.948,53.931c-15.054,16.031-28.683,33.114-40.965,51.4c-12.634,18.81-23.336,38.604-33.081,58.984
			c-3.623-0.028-2.989,2.607-3.021,4.827c-1.207,3.789-2.414,7.578-3.62,11.366c-4.443,0.176-2.805,3.607-3.189,5.957
			c-0.824,2.873-1.648,5.747-2.472,8.62c-3.647,0.261-2.76,2.925-2.724,5.138c-0.822,3.262-1.645,6.523-2.467,9.785
			c-4.737,1.021-3.16,4.654-3.16,7.635c-0.656,3.14-1.312,6.28-1.969,9.421c-5.129,1.717-3.434,5.85-3.335,9.418
			c-0.693,4.035-1.387,8.07-2.08,12.105c-1.462,0.637-2.23,1.415-0.547,2.691c-0.335,2.223-0.67,4.446-1.005,6.669
			c-5.444,2.936-2.63,7.955-3.065,12.154c-0.308,2.683-0.617,5.365-0.925,8.048c-1.85,1.142-2.138,2.471-0.484,4.034
			c-0.294,3.123-0.588,6.245-0.881,9.367c-3.567,0.49-2.658,3.291-2.957,5.561C2.22,355,3.861,359.275,1.345,363.059z"/>
		<path fill="#1E06F9" d="M11.062,311.815c0.335-2.223,0.67-4.446,1.005-6.668c0.867-0.757,1.07-1.651,0.547-2.692
			c0.693-4.035,1.387-8.07,2.08-12.104c4.023-2.108,2.76-6.089,3.335-9.419c0.656-3.14,1.312-6.28,1.968-9.419
			c3.577-1.501,2.871-4.774,3.16-7.637c0.822-3.262,1.645-6.523,2.467-9.783c3.279-0.455,2.58-3.021,2.725-5.14
			c0.824-2.873,1.648-5.747,2.472-8.618c3.346-0.763,2.887-3.565,3.19-5.958c1.207-3.789,2.414-7.578,3.62-11.365
			c2.971-0.379,2.864-2.687,3.021-4.828c9.744-20.38,20.447-40.174,33.081-58.984c12.282-18.286,25.91-35.369,40.965-51.4
			c19.225-20.473,40.508-38.552,63.948-53.931c34.865-22.876,72.666-39.121,113.498-47.968c27.883-6.042,56.146-8.413,84.623-7.037
			c42.819,2.069,83.874,11.975,122.675,30.191c30.313,14.232,58.084,32.475,83.439,54.566c20.131,17.54,37.829,37.221,54.177,58.124
			c9.579,12.247,17.477,25.75,25.609,39.062c9.872,16.16,17.084,33.564,25.404,50.443c3.3,6.695,5.291,14.049,7.706,21.162
			c6.386,18.814,12.16,37.847,15.943,57.339c3.518,18.127,7.026,36.332,7.261,54.927c0.029,2.298,0.081,4.559,3.037,5.104
			c0,3.585,0,7.171,0,10.756c-4.789,10.404-2.997,21.055-1.14,31.696c0.043,0.25,0.745,0.385,1.14,0.573c0,3.585,0,7.171,0,10.756
			c-2.165,1.161-2.86,3.218-2.946,5.417c-1.002,25.888-5.825,51.172-12.051,76.225c-2.079,8.368-4.018,16.815-6.827,24.948
			c-7.307,21.151-15.652,41.836-25.558,61.999c-7.892,16.064-16.891,31.452-26.823,46.096
			c-13.742,20.262-29.672,38.917-47.03,56.419c-23.328,23.52-49.309,43.411-78.056,59.505
			c-42.928,24.034-89.05,38.176-138.276,41.693c-1.38,0.099-3.27-0.683-3.947,1.48c-1.793,0-3.585,0-5.378,0
			c-9.412-1.951-18.824-1.954-28.235,0c-1.793,0-3.585,0-5.378,0c-0.897-2.393-3.035-1.318-4.609-1.522
			c-9.08-1.179-18.229-1.902-27.263-3.349c-46.954-7.521-90.169-24.776-129.98-50.636c-19.428-12.62-37.345-27.156-53.881-43.402
			c-15.036-14.772-28.773-30.571-41.392-47.529c-12.477-16.767-23.328-34.397-33.205-52.72c0.136-2.031-0.483-3.49-2.785-3.672
			c-0.747-2.003-1.494-4.005-2.242-6.008c-0.265-2.098-0.198-4.416-3.142-4.738c-0.843-2.379-1.686-4.758-2.529-7.137
			c0.083-2.251-0.206-4.274-2.944-4.791c-1.218-3.811-2.435-7.621-3.653-11.432c-0.257-2.079,0.376-4.667-2.875-5.038
			c-0.799-2.828-1.598-5.657-2.397-8.485c-0.439-2.349,0.563-5.409-3.056-6.188c-0.83-3.273-1.661-6.547-2.491-9.82
			c-0.433-2.354,0.919-5.509-2.857-6.363c-0.271-1.352-0.542-2.703-0.813-4.055c0.451-1.064,0.189-1.944-0.688-2.666
			c-0.309-1.487-0.618-2.974-0.926-4.461c-0.496-3.186,0.774-6.991-3.148-8.976c-0.224-1.352-0.447-2.705-0.671-4.057
			c0.513-1.046,0.295-1.936-0.577-2.685c-0.286-1.79-0.571-3.58-0.857-5.37c0.555-1.035,0.345-1.925-0.509-2.694
			c-0.248-1.79-0.497-3.579-0.745-5.369c-0.926-4.527,1.133-9.792-3.321-13.448c-0.312-2.687-0.625-5.373-0.937-8.06
			c0.632-0.995,0.5-1.896-0.334-2.71c-0.287-3.127-0.574-6.254-0.86-9.381c-0.382-7.799,0.153-15.777-1.327-23.361
			c-3.56-18.24-2.371-36.574-0.976-54.708c0.691-8.988,1.669-18.04,2.184-27.096c0.294-3.123,0.588-6.245,0.881-9.367
			c0.974-1.247,1.187-2.586,0.484-4.035c0.308-2.683,0.617-5.365,0.925-8.047C12.421,320.778,10.425,315.965,11.062,311.815z
			 M707.472,398.429c-0.524-18.458,0.245-36.947-3.848-55.246c-2.36-10.548-2.887-21.422-5.244-32.119
			c-3.529-16.013-7.17-31.852-12.612-47.366c-6.569-18.729-13.832-37.066-22.959-54.73c-9.911-19.181-21.088-37.452-33.82-54.92
			c-16.065-22.042-34.353-42.038-54.811-59.831c-28.952-25.181-61.315-45.419-97.26-59.063
			C398.276,5.303,319.535,5.64,241.487,37.35c-39.782,16.163-74.886,39.675-105.833,69.745
			c-17.29,16.799-32.948,34.842-46.948,54.254c-13.764,19.085-25.023,39.822-35.085,61.115
			c-9.427,19.949-16.925,40.681-22.707,61.95c-4.056,14.919-7.702,30.012-10.356,45.232c-3.061,17.549-3.673,35.457-5.177,53.193
			c-1.211,14.282-0.973,28.763,1.345,43.302c2.544,15.958,2.536,32.239,5.737,48.31c2.605,13.078,5.512,26.11,8.896,38.938
			c2.017,7.645,3.605,15.598,6.608,22.943c7.55,18.471,15.332,36.816,24.29,54.721c7.839,15.669,16.924,30.562,26.902,44.674
			c17.017,24.068,36.756,45.917,59.138,65.421c27.014,23.539,56.759,42.596,89.569,56.613
			c49.675,21.222,101.593,29.062,155.43,23.675c67.002-6.705,125.533-33.281,176.934-76.079
			c20.017-16.666,37.523-35.769,53.713-56.329c18.907-24.011,34.155-50.077,46.984-77.516c9.315-19.923,17.223-40.7,22.509-62.062
			c5.318-21.493,9.006-43.457,12.148-65.396C707.737,429.022,707.837,413.685,707.472,398.429z"/>
		<path fill="#FDFDFE" d="M380.504,797.345c0.677-2.163,2.567-1.381,3.947-1.48c49.226-3.517,95.348-17.659,138.276-41.693
			c28.747-16.094,54.728-35.984,78.056-59.505c17.358-17.501,33.288-36.157,47.03-56.419c9.932-14.644,18.931-30.032,26.823-46.096
			c9.906-20.163,18.251-40.849,25.558-61.999c2.809-8.132,4.748-16.58,6.827-24.948c6.226-25.054,11.049-50.337,12.051-76.225
			c0.085-2.199,0.781-4.256,2.946-5.417c0,122.801-0.033,245.602,0.129,368.403c0.006,4.604-0.903,5.514-5.507,5.507
			C604.594,797.308,492.549,797.345,380.504,797.345z"/>
		<path fill="#FDFDFE" d="M46.157,588.506c0.747,2.003,1.494,4.005,2.241,6.006c-0.208,2.085,0.147,3.745,2.786,3.674
			c9.877,18.323,20.728,35.954,33.205,52.72c12.619,16.958,26.356,32.757,41.392,47.529c16.536,16.246,34.452,30.782,53.881,43.402
			c39.811,25.86,83.026,43.115,129.98,50.636c9.034,1.447,18.183,2.17,27.263,3.349c1.574,0.204,3.712-0.871,4.609,1.522
			c-111.49,0-222.981-0.04-334.471,0.135c-4.879,0.008-5.832-1.044-5.826-5.856C1.38,671.626,1.345,551.628,1.345,431.63
			c2.449,4.271,0.923,8.97,1.428,13.451c0.26,2.306-0.544,5.093,3.054,5.503c0.287,3.127,0.574,6.254,0.86,9.38
			c-1.641,1.119-1.054,1.965,0.334,2.711c0.312,2.687,0.625,5.373,0.937,8.058c-0.159,4.795-2.08,10.026,3.321,13.449
			c0.248,1.79,0.497,3.579,0.745,5.368c-1.636,1.239-0.913,2.033,0.51,2.695c0.286,1.79,0.571,3.58,0.856,5.369
			c-1.665,1.294-0.876,2.061,0.577,2.686c0.224,1.352,0.447,2.705,0.67,4.056c-0.208,3.432-1.602,7.282,3.148,8.977
			c0.309,1.487,0.618,2.974,0.926,4.46c-1.636,1.369-0.759,2.092,0.688,2.667c0.271,1.352,0.542,2.703,0.813,4.053
			c0.28,2.422-1.551,5.793,2.857,6.365c0.83,3.273,1.661,6.547,2.491,9.818c0.299,2.417-1.469,5.857,3.057,6.189
			c0.799,2.828,1.598,5.657,2.396,8.483c-0.045,2.251-0.852,4.939,2.875,5.04c1.218,3.811,2.435,7.621,3.652,11.43
			c0.037,2.177-0.492,4.703,2.944,4.793c0.843,2.379,1.686,4.758,2.529,7.136C43.054,586.013,42.441,588.694,46.157,588.506z"/>
		<path fill="#CEB2DD" d="M5.826,450.584c-3.598-0.411-2.794-3.197-3.054-5.503c-0.505-4.481,1.021-9.18-1.428-13.451
			c0-22.857,0-45.714,0-68.571c2.517-3.784,0.875-8.059,1.405-12.08c0.299-2.27-0.61-5.071,2.957-5.561
			c-0.515,9.057-1.493,18.11-2.184,27.097c-1.395,18.135-2.584,36.468,0.976,54.708C5.98,434.808,5.445,442.785,5.826,450.584z"/>
		<path fill="#C9AED7" d="M722.017,412.807c-0.395-0.188-1.096-0.323-1.14-0.573c-1.858-10.641-3.649-21.292,1.14-31.696
			C722.017,391.294,722.017,402.05,722.017,412.807z"/>
		<path fill="#C9AED7" d="M346.891,797.345c9.412-1.954,18.824-1.951,28.235,0C365.714,797.345,356.303,797.345,346.891,797.345z"/>
		<path fill="#CEB2DD" d="M11.062,311.815c-0.637,4.149,1.359,8.962-3.066,12.155C8.432,319.77,5.619,314.751,11.062,311.815z"/>
		<path fill="#CEB2DD" d="M18.029,280.933c-0.575,3.33,0.689,7.311-3.335,9.419C14.595,286.783,12.9,282.65,18.029,280.933z"/>
		<path fill="#CEB2DD" d="M23.157,263.877c-0.288,2.862,0.417,6.136-3.16,7.637C19.997,268.531,18.42,264.898,23.157,263.877z"/>
		<path fill="#CEB2DD" d="M34.01,234.377c-0.303,2.394,0.156,5.195-3.19,5.958C31.204,237.984,29.566,234.553,34.01,234.377z"/>
		<path fill="#CEB2DD" d="M28.348,248.954c-0.144,2.119,0.554,4.684-2.725,5.14C25.588,251.879,24.701,249.214,28.348,248.954z"/>
		<path fill="#CEB2DD" d="M40.651,218.184c-0.157,2.142-0.05,4.449-3.021,4.828C37.662,220.791,37.028,218.156,40.651,218.184z"/>
		<path fill="#CEB2DD" d="M7.072,332.017c0.703,1.449,0.491,2.788-0.484,4.035C4.934,334.489,5.222,333.159,7.072,332.017z"/>
		<path fill="#CEB2DD" d="M12.614,302.455c0.523,1.041,0.319,1.935-0.547,2.692C10.385,303.87,11.153,303.092,12.614,302.455z"/>
		<path fill="#010102" d="M707.472,398.429c0.365,15.257,0.265,30.594-1.888,45.625c-3.142,21.938-6.831,43.903-12.148,65.396
			c-5.285,21.362-13.194,42.139-22.509,62.062c-12.829,27.439-28.077,53.505-46.984,77.516
			c-16.19,20.56-33.697,39.663-53.713,56.329c-51.401,42.797-109.932,69.374-176.934,76.079
			c-53.836,5.387-105.754-2.453-155.43-23.675c-32.81-14.017-62.556-33.074-89.569-56.613
			c-22.383-19.504-42.121-41.354-59.138-65.421c-9.978-14.112-19.063-29.005-26.902-44.674c-8.958-17.905-16.741-36.25-24.29-54.721
			c-3.002-7.346-4.591-15.298-6.608-22.943c-3.384-12.828-6.291-25.86-8.896-38.938c-3.201-16.071-3.192-32.352-5.737-48.31
			c-2.318-14.539-2.556-29.02-1.345-43.302c1.503-17.735,2.116-35.644,5.177-53.193c2.655-15.22,6.3-30.313,10.356-45.232
			c5.782-21.27,13.28-42.002,22.707-61.95c10.062-21.293,21.321-42.03,35.085-61.115c14-19.412,29.658-37.455,46.948-54.254
			c30.947-30.07,66.051-53.583,105.833-69.745c78.048-31.71,156.79-32.047,235.431-2.196c35.945,13.644,68.308,33.883,97.26,59.063
			c20.458,17.793,38.747,37.789,54.811,59.831c12.731,17.469,23.909,35.739,33.82,54.92c9.127,17.664,16.39,36.001,22.959,54.73
			c5.442,15.514,9.083,31.353,12.612,47.366c2.357,10.697,2.885,21.571,5.244,32.119
			C707.717,361.481,706.948,379.971,707.472,398.429z M417.671,348.995c14.313-11.465,22.948-26.123,21.677-44.69
			c-1.675-24.48-16.52-40.496-37.619-50.412c-32.639-15.339-65.238-14.215-96.741,3.841c-14.04,8.047-24.498,19.784-28.944,35.382
			c-5.029,17.645-0.145,33.75,11.116,48.039c1.126,1.428,2.604,2.392,3.945,1.632c1.623-0.921,0.629-2.765,0.16-4.229
			c-1.208-3.776-4.01-6.704-4.801-10.843c-4.237-22.189,5.381-41.028,28.145-54.226c34.413-19.951,93.06-12.024,110.119,26.639
			c4.735,10.732,4.512,21.354,0.887,31.812c-1.947,5.616-6.279,10.405-9.534,15.567c-3.356,2.666-6.712,5.333-10.068,7.999
			C410.919,354.888,414.973,353.049,417.671,348.995z M433.845,247.1c-3.846-2.232-7.878-3.719-14.39-3.436
			c4.673,2.336,7.678,3.838,10.682,5.341c8.307,6.086,16.715,11.803,23.401,20.062c15.747,19.45,23.638,40.053,16.189,65.439
			c-7.22,24.604-23.396,41.15-44.961,52.736c-30.958,16.632-64.064,20.076-98.148,12.076c-23.087-5.419-43.59-15.727-59.419-34.18
			c-4.8-5.596-9.187-11.217-11.664-18.228c-0.73-2.067-2.346-4.537-4.647-3.667c-2.047,0.774-1.115,3.746-0.581,5.419
			c1.597,5.004,3.529,9.9,5.53,14.782c5.979,14.587,16.23,25.677,28.268,34.993c27.727,21.458,59.85,30.349,94.447,29.084
			c40.252-1.472,76.35-13.32,103.119-45.891c13.677-16.641,20.881-35.361,18.875-56.888c-1.571-16.86-8.849-31.427-19.68-44.548
			C468.134,264.768,452.421,254.006,433.845,247.1z M432.975,440.305c-6.188,2.426-12.377,4.853-18.565,7.279
			c8.814-0.616,17.104-2.432,24.802-6.242c1.312-0.239,2.714-0.257,3.923-0.748c33.019-13.422,62.219-31.678,84.051-60.997
			c13.93-18.707,21.426-39.366,24.824-61.818c1.565-10.34-0.289-20.714-1.77-31.184c-3.203-22.633-13.564-41.794-27.412-58.799
			c-19.981-24.538-45.891-41.606-75.366-53.178c-36.015-14.14-73.363-19.801-111.793-15.785
			c-63.203,6.606-118.08,28.827-154.578,84.69c-9.606,14.703-15.501,30.691-18.168,47.692c-2.17,13.829-1.044,27.646,2.231,41.664
			c3.925,16.799,12.444,31.018,20.557,45.627c1.04,1.873,2.805,5.001,6.809,2.819c-3.526-3.066-2.918-7.785-4.93-11.273
			c-6.085-10.552-6.268-22.556-8.594-33.949c-2.068-10.131,1.14-20.234,3.025-30.317c2.298-12.291,7.692-23.156,14.476-33.186
			c16.104-23.81,38.174-40.86,64.276-52.371c48.309-21.304,98.238-24.363,148.645-9.319c40.278,12.02,74.471,32.991,95.078,71.886
			c9.056,17.094,12.758,34.804,11.432,53.907c-1.028,14.815-4.993,28.496-12.014,41.741c-7.273,13.72-17.249,24.802-28.539,35.004
			C462.785,424.822,448.232,433.128,432.975,440.305z M358.703,345.88c7.431-0.025,16.211-2.227,22.464-7.418
			c11.875-9.858,15.577-22.016,2.837-34.884c-12.158-12.28-36.767-13.698-50.671-3.107c-10.319,7.86-13.355,23.827-6.085,32.252
			C335.179,341.915,345.491,345.726,358.703,345.88z M302.028,239.067c-37.721,3.08-69.537,16.619-87.543,52.179
			c-4.07,8.039-6.839,17.759-5.277,27.225c2.466,14.944,7.523,28.939,18.824,39.872c1.546,1.495,2.573,4.535,5.108,3.121
			c2.056-1.147,1.097-3.988,0.771-6.103c-1.185-7.68-4.47-15.686-3.25-22.945c2.138-12.727,2.175-25.902,8.65-38.043
			c8.357-15.67,18.673-29.056,33.122-39.487C281.649,248.234,291.869,243.767,302.028,239.067z M403.074,555.291
			c8.104-0.832,15.275-2.222,21.78-5.751c7.783-4.222,12.541-11.228,12.734-19.612c0.191-8.263-4.592-15.742-12.107-19.259
			c-18.793-8.794-38.056-9.258-56.598,0.892c-12.019,6.579-13.664,23.141-4.41,33.105c4.99,5.373,11.91,6.738,18.393,9.989
			c-3.034,1.863-6.665,2.233-6.75,6.696c5.022-1.713,9.801-1.013,14.557,0.236c10.781,2.832,21.536,5.769,32.355,8.449
			c6.499,1.611,13.07,3.153,19.811,1.003c5.341-1.703,6.784-3.199,7.558-8.15C440.037,565.614,414.728,561.749,403.074,555.291z
			 M247.049,523.132c5.731-0.186,6.412,2.958,6.202,7.347c-0.289,6.032-0.412,12.114,0.023,18.129
			c0.493,6.809,5.869,6.885,10.874,6.611c4.378-0.24,9.368,0.055,8.932-6.888c-0.294-4.684,0.083-9.407-0.097-14.103
			c-0.132-3.461,1.174-5.127,4.591-6.203c3.972-1.251,7.778-2.031,11.812-0.894c1.431,0.403,2.646,1.548,4.152-0.135
			c3.776-4.219,6.213-0.57,8.248,1.935c5.294,6.515,9.898,13.522,13.654,21.062c5.518,11.077,5.635,11.41-6.426,14.939
			c-5.133,1.502-10.871,3.521-16.159,0.342c-2.189-1.316-3.892-3.121-6.537-1.432c-1.263,0.806-1.771,2.081-1.185,3.482
			c1.213,2.902,4.068,2.418,6.381,2.733c19.409,2.645,45.441-9.955,55.478-29.304c2.721-5.245,3.066-11.177,2.797-17.068
			c-0.09-1.976-0.778-3.485-2.937-3.883c-2.557-0.472-4.9,0.182-7.034,1.532c-0.985,0.623-0.544,1.512,0.003,2.273
			c6.07,8.432-0.169,15.044-3.419,21.986c-1.34,2.862-3.501,1.833-4.291-0.49c-1.461-4.295-4.173-7.775-6.589-11.459
			c-7.39-11.271-12.816-15.999-28.228-13.276c-1.512,0.267-3.24,0.669-4.598,0.21c-5.388-1.822-10.002-0.375-14.683,2.337
			c-1.396,0.809-3.131,3.062-5.293,1.12C264.715,516.844,256.129,519.94,247.049,523.132z M104.899,563.018
			c13.08,0.048,22.165-2.4,29.099-7.842c5.078-3.985,5.798-11.513,1.073-15.722c-3.44-3.064-7.345-5.671-11.279-8.1
			c-6.015-3.715-12.517-6.643-17.708-11.637c-4.462-4.293-3.533-9.281,2.296-11.157c5.822-1.874,10.033-0.07,12.091,5.88
			c1.265,3.657,4.081,3.579,7.117,3.167c2.648-0.36,4.957-1.359,5.147-4.325c0.195-3.056-1.648-4.784-4.539-5.788
			c-11.819-4.102-23.623-4.233-35.428-0.097c-4.51,1.58-7.839,4.405-8.137,9.552c-0.284,4.903,2.023,8.378,6.148,11.029
			c7.626,4.901,15.273,9.806,22.568,15.176c5.825,4.288,4.479,12.19-2.151,14.891c-8.034,3.274-14.559,0.992-18.682-6.808
			c-1.831-3.464-4.721-3.587-7.948-3.348c-2.623,0.195-4.196,1.691-4.528,4.155c-0.435,3.231,1.105,5.207,4.07,6.841
			C90.674,562.502,97.717,562.929,104.899,563.018z M507.233,550.869c-4.89,0.436-5.91-1.919-5.706-6.062
			c0.285-5.798,0.078-11.621,0.062-17.433c-0.005-2.003,0.165-4.072-1.586-5.588c-3.673-3.18-17.516-2.718-21.036,0.703
			c1.439,0.546-4.222,2.31,0.426,2.388c1.578,0.026,2.276,1.289,2.276,2.785c0.003,5.586,0.55,11.258-0.25,16.731
			c-0.684,4.675-5.284,4.791-9.118,4.939c-4.245,0.163-4.368-2.828-4.327-5.934c0.053-4.023,0.011-8.047,0.01-12.071
			c-0.003-10.028-2.447-12.278-12.672-11.665c-6.927,0.415-7.566,1.297-5.944,7.664c0.322,1.265,0.107,2.67,0.11,4.011
			c0.011,4.694,0.081,9.39-0.007,14.083c-0.106,5.679,2.722,8.605,8.206,9.48c6.865,1.095,13.334-0.316,19.604-2.898
			c1.92-0.791,3.52-1.661,5.53-0.182C490.979,557.826,499.02,555.498,507.233,550.869z M212.13,555.269
			c7.543,0.097,13.588-0.5,19.083-3.211c5.239-2.585,10.012-5.85,10.656-12.543c0.629-6.546-1.324-11.417-7.166-15.278
			c-10.33-6.826-34.935-5.74-43.853,2.563c-5.837,5.435-6.622,11.019-2.466,17.689C194.272,553.94,204.023,554.398,212.13,555.269z
			 M566.299,548.615c-4.409-1.323-6.459,0.521-8.795,0.973c-8.507,1.644-16.142,0.817-22.675-5.956
			c-3.634-3.767-1.505-4.462,1.672-5.497c6.778-2.208,13.566-4.385,20.322-6.657c2.578-0.867,5.576-2.682,5.747-4.901
			c0.179-2.327-2.823-4.485-5.323-5.147c-13.353-3.538-26.342-2.373-37.764,5.656c-9.767,6.865-8.499,18.685,2.323,23.914
			C536.304,558.006,550.623,556.206,566.299,548.615z M143.893,520.743c6.084,1.231,5.733,5.442,5.562,9.79
			c-0.193,4.911,0.053,9.838-0.063,14.754c-0.094,4.004,1.465,6.66,5.178,8.422c7.651,3.631,20.499,1.225,26.701-5.267
			c-0.745-0.829-1.6-0.533-2.416-0.178c-8.779,3.814-10.681,2.627-10.702-6.698c-0.002-0.894-0.056-1.793,0.009-2.682
			c0.372-5.076-1.942-11.049,1.064-15.008c2.802-3.691,8.73-1.845,13.317-2.32c1.672-0.173,4.196-0.347,4.324-3.101
			c0.069-1.485-0.759-2.544-2.12-3.075c-2.082-0.813-4.88-0.477-5.267,1.314c-0.998,4.616-4.239,3.057-6.769,3.038
			c-3.532-0.025-3.307-2.898-3.468-5.369c-0.124-1.907-0.806-3.581-2.909-3.949c-1.888-0.331-3.483,0.227-4.431,2.145
			c-1.515,3.065-4.499,4.29-7.431,5.295C151.021,519.036,147.426,519.798,143.893,520.743z M614.66,521.464
			c6.987,0.203,6.623,4.513,6.393,8.931c-0.186,3.571-0.04,7.159-0.037,10.74c0.009,11.832,2.21,14.093,13.983,14.102
			c4.033,0.003,8.034-0.416,11.823-1.994c2.19-0.912,4.024-2.099,4.495-5.049c-8.86,4.119-12.604,2.329-11.641-6.788
			c0.491-4.648,0.262-9.398,0.036-14.087c-0.171-3.534,1.207-4.788,4.655-4.653c3.341,0.131,6.726,0.048,10.04-0.362
			c2.304-0.285,3.707-2.299,4.573-4.28c0.16-0.365-1.683-2.021-2.837-2.454c-2.119-0.795-4.392-1.219-5.532,1.741
			c-1.766,4.585-5.689,2.352-8.581,2.25c-3.357-0.119-2.194-3.354-2.203-5.328c-0.02-3.922-2.857-5.633-4.847-3.161
			C629.749,517.572,622.372,518.727,614.66,521.464z M569.047,548.967c8.131,8.357,30.911,8.535,38.53,0.515
			c2.609-2.747,3.129-5.823-0.287-8.485c-1.903-1.483-3.342-3.386-5.731-4.477c-4.435-2.024-8.623-4.629-12.773-7.218
			c-1.561-0.974-2.594-2.796-1.269-4.612c1.877-2.572,4.791-1.913,7.432-1.795c1.437,0.064,3.199,0.962,2.026,2.33
			c-2.684,3.133-0.22,3.844,1.818,4.2c2.564,0.448,5.75,0.917,6.904-2.377c0.876-2.501-0.8-4.366-3.141-5.115
			c-9.648-3.087-19.294-3.971-28.614,1.08c-5.032,2.727-5.173,6.489-0.869,10.436c3.647,3.345,7.833,5.801,12.106,8.184
			c2.434,1.357,4.749,3.169,3.905,6.276c-0.785,2.889-3.818,2.613-6.162,3.186C578.159,552.259,574.005,549.011,569.047,548.967z"/>
		<path fill="#CEB2DD" d="M11.279,484.183c-5.401-3.423-3.48-8.655-3.321-13.449C12.412,474.391,10.353,479.655,11.279,484.183z"/>
		<path fill="#CEB2DD" d="M17.786,513.332c-4.75-1.695-3.356-5.545-3.148-8.977C18.56,506.341,17.29,510.146,17.786,513.332z"/>
		<path fill="#CEB2DD" d="M23.069,530.877c-4.408-0.571-2.577-3.943-2.857-6.365C23.988,525.367,22.637,528.523,23.069,530.877z"/>
		<path fill="#CEB2DD" d="M28.617,546.885c-4.526-0.332-2.757-3.772-3.057-6.189C29.179,541.475,28.178,544.535,28.617,546.885z"/>
		<path fill="#CEB2DD" d="M40.485,576.631c-3.437-0.09-2.908-2.616-2.944-4.793C40.279,572.357,40.568,574.38,40.485,576.631z"/>
		<path fill="#CEB2DD" d="M46.157,588.506c-3.716,0.188-3.103-2.493-3.142-4.74C45.958,584.09,45.892,586.408,46.157,588.506z"/>
		<path fill="#CEB2DD" d="M33.888,560.408c-3.728-0.101-2.921-2.788-2.875-5.04C34.265,555.741,33.631,558.328,33.888,560.408z"/>
		<path fill="#CEB2DD" d="M51.183,598.186c-2.639,0.071-2.994-1.589-2.786-3.674C50.7,594.696,51.319,596.154,51.183,598.186z"/>
		<path fill="#CEB2DD" d="M7.021,462.675c-1.389-0.747-1.975-1.592-0.334-2.711C7.521,460.779,7.653,461.68,7.021,462.675z"/>
		<path fill="#CEB2DD" d="M19.4,520.459c-1.446-0.576-2.324-1.298-0.688-2.667C19.588,518.515,19.851,519.395,19.4,520.459z"/>
		<path fill="#CEB2DD" d="M12.534,492.245c-1.423-0.662-2.146-1.456-0.51-2.695C12.879,490.32,13.088,491.21,12.534,492.245z"/>
		<path fill="#CEB2DD" d="M13.967,500.3c-1.454-0.625-2.243-1.392-0.577-2.686C14.262,498.364,14.48,499.253,13.967,500.3z"/>
		<path fill="#CEB2DD" d="M432.975,440.305c15.257-7.177,29.81-15.484,42.397-26.857c11.29-10.202,21.267-21.283,28.539-35.004
			c7.021-13.245,10.986-26.926,12.014-41.741c1.326-19.103-2.375-36.813-11.432-53.907c-20.606-38.895-54.8-59.866-95.078-71.886
			c-50.406-15.043-100.335-11.985-148.645,9.319c-26.102,11.511-48.172,28.56-64.276,52.371
			c-6.784,10.03-12.178,20.894-14.476,33.186c-1.885,10.083-5.093,20.187-3.025,30.317c2.326,11.393,2.509,23.397,8.594,33.949
			c2.011,3.488,1.404,8.208,4.93,11.273c-4.004,2.182-5.769-0.946-6.809-2.819c-8.113-14.609-16.632-28.828-20.557-45.627
			c-3.275-14.018-4.401-27.835-2.231-41.664c2.668-17,8.563-32.989,18.168-47.692c36.498-55.863,91.375-78.085,154.578-84.69
			c38.43-4.016,75.778,1.645,111.793,15.785c29.475,11.572,55.384,28.64,75.366,53.178c13.848,17.006,24.209,36.166,27.412,58.799
			c1.482,10.47,3.335,20.844,1.77,31.184c-3.398,22.453-10.894,43.111-24.824,61.818c-21.832,29.319-51.032,47.576-84.051,60.997
			c-1.209,0.492-2.611,0.51-3.924,0.748C437.315,439.884,434.466,444.183,432.975,440.305z"/>
		<path fill="#CEB2DD" d="M433.845,247.1c18.576,6.905,34.289,17.668,47.021,33.092c10.831,13.122,18.109,27.689,19.68,44.548
			c2.006,21.527-5.198,40.247-18.875,56.888c-26.769,32.571-62.868,44.419-103.119,45.891c-34.596,1.265-66.719-7.626-94.447-29.084
			c-12.038-9.316-22.288-20.406-28.268-34.993c-2.001-4.882-3.933-9.778-5.53-14.782c-0.534-1.673-1.466-4.645,0.581-5.419
			c2.301-0.871,3.917,1.6,4.647,3.667c2.476,7.011,6.863,12.632,11.664,18.228c15.829,18.453,36.332,28.761,59.419,34.18
			c34.085,8.001,67.19,4.557,98.148-12.076c21.565-11.586,37.741-28.132,44.961-52.736c7.449-25.386-0.442-45.988-16.189-65.439
			c-6.686-8.259-15.094-13.975-23.401-20.062C430.967,247.58,432.43,247.387,433.845,247.1z"/>
		<path fill="#C9AED7" d="M416.079,347.506c3.256-5.162,7.587-9.951,9.534-15.567c3.626-10.458,3.848-21.08-0.887-31.812
			c-17.059-38.663-75.706-46.59-110.119-26.639c-22.764,13.198-32.382,32.036-28.145,54.226c0.791,4.14,3.593,7.068,4.801,10.843
			c0.469,1.464,1.462,3.309-0.16,4.229c-1.341,0.761-2.819-0.203-3.945-1.632c-11.261-14.29-16.145-30.395-11.116-48.039
			c4.446-15.598,14.905-27.335,28.944-35.382c31.504-18.056,64.102-19.181,96.741-3.841c21.1,9.916,35.944,25.933,37.619,50.412
			c1.271,18.568-7.364,33.225-21.67,44.681C417.149,348.487,416.614,347.996,416.079,347.506z"/>
		<path fill="#CEB2DD" d="M358.703,345.88c-13.212-0.155-23.524-3.965-31.455-13.157c-7.27-8.426-4.234-24.392,6.085-32.252
			c13.904-10.591,38.513-9.173,50.671,3.107c12.74,12.868,9.038,25.026-2.837,34.884
			C374.914,343.653,366.135,345.855,358.703,345.88z"/>
		<path fill="#C9AED7" d="M302.028,239.067c-10.159,4.7-20.379,9.167-29.594,15.819c-14.45,10.431-24.765,23.817-33.122,39.487
			c-6.475,12.141-6.512,25.316-8.65,38.043c-1.22,7.259,2.065,15.264,3.25,22.945c0.326,2.115,1.285,4.956-0.771,6.103
			c-2.536,1.415-3.563-1.625-5.108-3.121c-11.301-10.933-16.358-24.927-18.824-39.872c-1.562-9.467,1.206-19.187,5.277-27.225
			C232.491,255.686,264.307,242.147,302.028,239.067z"/>
		<path fill="#388FDC" d="M403.074,555.291c11.654,6.458,36.964,10.323,47.322,7.6c-0.774,4.951-2.217,6.447-7.558,8.15
			c-6.741,2.15-13.311,0.607-19.811-1.003c-10.819-2.681-21.574-5.617-32.355-8.449c-4.756-1.249-9.535-1.949-14.557-0.236
			c0.085-4.463,3.716-4.833,6.75-6.696c-6.483-3.251-13.403-4.616-18.393-9.989c-9.254-9.964-7.608-26.526,4.41-33.105
			c18.542-10.15,37.805-9.686,56.598-0.892c7.515,3.517,12.298,10.996,12.107,19.259c-0.193,8.384-4.951,15.389-12.734,19.612
			C418.349,553.069,411.178,554.459,403.074,555.291z M415.943,529.682c-0.115-2.011-0.028-4.059-0.381-6.028
			c-1.243-6.923-4.67-12.657-11.398-15.06c-6.641-2.372-13.284-1.261-18.876,3.472c-5.011,4.241-7.694,19.287-5.182,25.645
			c2.823,7.145,6.252,13.063,14.937,14.094C406.854,553.206,416.641,545.063,415.943,529.682z"/>
		<path fill="#388FDC" d="M247.049,523.132c9.08-3.192,17.666-6.287,25.673,0.904c2.163,1.943,3.897-0.311,5.293-1.12
			c4.681-2.712,9.295-4.159,14.683-2.337c1.358,0.459,3.086,0.057,4.598-0.21c15.413-2.723,20.839,2.005,28.228,13.276
			c2.415,3.684,5.128,7.164,6.589,11.459c0.79,2.323,2.951,3.352,4.291,0.49c3.25-6.942,9.49-13.554,3.419-21.986
			c-0.547-0.76-0.988-1.649-0.003-2.273c2.134-1.35,4.477-2.004,7.034-1.532c2.158,0.399,2.846,1.907,2.937,3.883
			c0.269,5.89-0.076,11.822-2.797,17.068c-10.037,19.349-36.069,31.949-55.478,29.304c-2.313-0.315-5.168,0.169-6.381-2.733
			c-0.586-1.401-0.077-2.676,1.185-3.482c2.645-1.689,4.347,0.116,6.537,1.432c5.289,3.179,11.027,1.16,16.159-0.342
			c12.061-3.53,11.944-3.862,6.426-14.939c-3.756-7.54-8.361-14.548-13.654-21.062c-2.036-2.505-4.472-6.154-8.248-1.935
			c-1.506,1.683-2.721,0.539-4.152,0.135c-4.034-1.137-7.84-0.358-11.812,0.894c-3.417,1.076-4.724,2.742-4.591,6.203
			c0.18,4.696-0.197,9.419,0.097,14.103c0.436,6.943-4.555,6.648-8.932,6.888c-5.005,0.274-10.382,0.199-10.874-6.611
			c-0.435-6.015-0.312-12.096-0.023-18.129C253.461,526.089,252.78,522.946,247.049,523.132z"/>
		<path fill="#388FDC" d="M104.9,563.013c-7.183-0.084-14.226-0.511-20.79-4.128c-2.965-1.634-4.506-3.61-4.07-6.841
			c0.332-2.464,1.904-3.96,4.528-4.155c3.227-0.239,6.116-0.117,7.948,3.348c4.123,7.8,10.647,10.083,18.682,6.808
			c6.629-2.701,7.976-10.603,2.151-14.891c-7.295-5.37-14.941-10.275-22.568-15.176c-4.125-2.651-6.431-6.126-6.148-11.029
			c0.298-5.147,3.627-7.972,8.137-9.552c11.805-4.136,23.609-4.005,35.428,0.097c2.891,1.003,4.734,2.732,4.539,5.788
			c-0.189,2.966-2.498,3.965-5.147,4.325c-3.035,0.412-5.852,0.49-7.117-3.167c-2.059-5.95-6.269-7.754-12.091-5.88
			c-5.829,1.876-6.758,6.864-2.296,11.157c5.19,4.994,11.693,7.923,17.708,11.637c3.934,2.429,7.839,5.036,11.279,8.1
			c4.725,4.209,4.005,11.737-1.073,15.722C127.063,560.617,117.978,563.066,104.9,563.013z"/>
		<path fill="#388FDC" d="M507.233,550.869c-8.213,4.629-16.253,6.957-24.422,0.949c-2.01-1.478-3.61-0.608-5.53,0.182
			c-6.269,2.582-12.738,3.993-19.604,2.898c-5.484-0.875-8.313-3.801-8.206-9.48c0.088-4.693,0.018-9.388,0.007-14.083
			c-0.003-1.341,0.212-2.747-0.11-4.011c-1.622-6.368-0.983-7.249,5.944-7.664c10.225-0.613,12.669,1.636,12.672,11.665
			c0.001,4.024,0.043,8.048-0.01,12.071c-0.041,3.106,0.083,6.097,4.327,5.934c3.834-0.147,8.434-0.263,9.118-4.939
			c0.8-5.473,0.253-11.145,0.25-16.731c-0.001-1.496-0.699-2.758-2.276-2.785c-4.647-0.078,1.013-1.841-0.426-2.388
			c3.52-3.42,17.363-3.882,21.036-0.703c1.751,1.516,1.58,3.585,1.586,5.588c0.016,5.812,0.222,11.635-0.062,17.433
			C501.323,548.95,502.342,551.305,507.233,550.869z"/>
		<path fill="#388FDC" d="M212.13,555.269c-8.107-0.872-17.858-1.33-23.747-10.78c-4.156-6.67-3.371-12.254,2.466-17.689
			c8.918-8.303,33.523-9.388,43.853-2.563c5.842,3.86,7.795,8.732,7.166,15.278c-0.643,6.693-5.416,9.957-10.656,12.543
			C225.718,554.77,219.673,555.366,212.13,555.269z M223.352,537.439c-0.09-1.908-0.176-3.689-0.259-5.47
			c-0.249-5.397-3.42-8.075-8.474-8.348c-5.397-0.291-8.223,2.804-8.598,8.032c-0.334,4.657-0.736,9.361,0.541,13.955
			c1.521,5.474,7.061,7.458,12.065,4.66C224.051,547.236,222.861,542.024,223.352,537.439z"/>
		<path fill="#388FDC" d="M566.299,548.615c-15.676,7.59-29.995,9.39-44.494,2.384c-10.822-5.23-12.09-17.049-2.323-23.914
			c11.422-8.029,24.411-9.193,37.764-5.656c2.501,0.662,5.502,2.82,5.323,5.147c-0.171,2.219-3.169,4.034-5.747,4.901
			c-6.756,2.273-13.544,4.45-20.322,6.657c-3.177,1.035-5.306,1.73-1.672,5.497c6.533,6.773,14.168,7.6,22.675,5.956
			C559.84,549.137,561.89,547.292,566.299,548.615z M540.077,523.453c-4.279,1.108-7.571,3.492-7.926,8.678
			c-0.127,1.858,0.272,4.331,2.656,3.104c4.139-2.13,11.124,0.054,12.144-6.702C547.561,524.487,543.598,524.061,540.077,523.453z"
			/>
		<path fill="#388FDC" d="M143.893,520.743c3.533-0.945,7.128-1.707,10.579-2.89c2.932-1.005,5.916-2.23,7.431-5.295
			c0.948-1.918,2.543-2.476,4.431-2.145c2.102,0.368,2.784,2.042,2.909,3.949c0.161,2.471-0.064,5.344,3.468,5.369
			c2.529,0.018,5.77,1.577,6.769-3.038c0.387-1.791,3.185-2.127,5.267-1.314c1.36,0.531,2.189,1.59,2.12,3.075
			c-0.128,2.754-2.652,2.928-4.324,3.101c-4.587,0.475-10.515-1.371-13.317,2.32c-3.005,3.959-0.692,9.932-1.064,15.008
			c-0.065,0.89-0.011,1.788-0.009,2.682c0.021,9.326,1.924,10.513,10.702,6.698c0.816-0.355,1.671-0.651,2.416,0.182
			c-6.202,6.488-19.049,8.894-26.701,5.263c-3.713-1.762-5.273-4.418-5.178-8.422c0.116-4.916-0.131-9.843,0.063-14.754
			C149.626,526.185,149.977,521.973,143.893,520.743z"/>
		<path fill="#388FDC" d="M614.66,521.464c7.713-2.738,15.089-3.892,20.318-10.391c1.989-2.472,4.827-0.761,4.847,3.161
			c0.01,1.974-1.153,5.209,2.203,5.328c2.892,0.103,6.815,2.335,8.581-2.25c1.14-2.96,3.414-2.536,5.532-1.741
			c1.154,0.433,2.997,2.089,2.837,2.454c-0.866,1.981-2.269,3.995-4.573,4.28c-3.314,0.41-6.699,0.493-10.04,0.362
			c-3.448-0.136-4.826,1.119-4.655,4.653c0.227,4.688,0.455,9.439-0.036,14.087c-0.963,9.117,2.781,10.906,11.641,6.788
			c-0.471,2.949-2.304,4.136-4.495,5.049c-3.789,1.578-7.79,1.997-11.823,1.994c-11.773-0.009-13.974-2.27-13.983-14.102
			c-0.003-3.581-0.149-7.169,0.037-10.74C621.283,525.978,621.647,521.668,614.66,521.464z"/>
		<path fill="#388FDC" d="M569.047,548.967c4.958,0.044,9.112,3.293,13.873,2.129c2.344-0.573,5.377-0.297,6.162-3.186
			c0.844-3.107-1.471-4.919-3.905-6.276c-4.273-2.382-8.458-4.839-12.106-8.184c-4.304-3.947-4.163-7.709,0.869-10.436
			c9.321-5.051,18.967-4.167,28.614-1.08c2.341,0.749,4.017,2.614,3.141,5.115c-1.154,3.294-4.34,2.825-6.904,2.377
			c-2.038-0.356-4.502-1.067-1.818-4.2c1.173-1.369-0.589-2.266-2.026-2.33c-2.641-0.118-5.555-0.777-7.432,1.795
			c-1.325,1.816-0.291,3.638,1.269,4.612c4.15,2.589,8.338,5.193,12.773,7.218c2.389,1.091,3.828,2.994,5.731,4.477
			c3.416,2.661,2.896,5.738,0.287,8.485C599.958,557.502,577.178,557.324,569.047,548.967z"/>
		<path fill="#C9AED7" d="M432.975,440.305c1.491,3.878,4.341-0.421,6.235,1.036c-7.697,3.811-15.987,5.627-24.8,6.243
			C420.598,445.158,426.786,442.732,432.975,440.305z"/>
		<path fill="#388FDC" d="M416.079,347.506c0.535,0.49,1.07,0.981,1.598,1.48c-2.704,4.063-6.759,5.902-11.666,6.519
			C409.367,352.839,412.723,350.173,416.079,347.506z"/>
		<path fill="#C9AED7" d="M433.845,247.1c-1.415,0.286-2.878,0.48-3.708,1.905c-3.005-1.502-6.009-3.004-10.682-5.341
			C425.967,243.381,429.999,244.869,433.845,247.1z"/>
		<path fill="#010102" d="M415.943,529.682c0.698,15.38-9.089,23.523-20.9,22.122c-8.685-1.03-12.114-6.948-14.937-14.094
			c-2.511-6.358,0.171-21.404,5.182-25.645c5.592-4.732,12.235-5.844,18.876-3.472c6.727,2.403,10.155,8.137,11.398,15.06
			C415.915,525.623,415.828,527.671,415.943,529.682z"/>
		<path fill="#010102" d="M223.352,537.439c-0.492,4.586,0.699,9.797-4.725,12.83c-5.004,2.798-10.544,0.814-12.065-4.66
			c-1.277-4.594-0.875-9.297-0.541-13.955c0.375-5.228,3.202-8.324,8.598-8.032c5.054,0.273,8.225,2.951,8.474,8.348
			C223.176,533.75,223.262,535.53,223.352,537.439z"/>
		<path fill="#010102" d="M540.077,523.453c3.522,0.608,7.484,1.035,6.874,5.079c-1.02,6.756-8.005,4.572-12.144,6.702
			c-2.383,1.227-2.783-1.246-2.656-3.104C532.506,526.945,535.797,524.561,540.077,523.453z"/>
	</g>
</g>
</svg>
