<?xml version="1.0" standalone="no"?>
<!DOCTYPE svg PUBLIC "-//W3C//DTD SVG 20010904//EN"
 "http://www.w3.org/TR/2001/REC-SVG-20010904/DTD/svg10.dtd">
<svg version="1.0" xmlns="http://www.w3.org/2000/svg"
 width="800.000000pt" height="720.000000pt" viewBox="0 0 800.000000 720.000000"
 preserveAspectRatio="xMidYMid meet">
<metadata>
Created by potrace 1.13, written by Peter Selinger 2001-2015
</metadata>
<g transform="translate(0.000000,720.000000) scale(0.100000,-0.100000)"
fill="#000000" stroke="none">
<path d="M3360 4882 c-19 -9 -43 -33 -53 -52 -17 -32 -18 -56 -12 -329 3 -161
10 -315 16 -341 6 -31 21 -57 40 -76 l30 -29 207 -3 c203 -3 208 -3 242 20 54
36 70 78 70 188 1 56 7 111 15 135 8 22 15 41 15 43 0 1 -9 2 -20 2 -12 0 -26
12 -35 30 -29 57 -53 61 -291 58 -148 -2 -213 0 -210 8 2 5 10 46 17 89 15 96
35 123 77 101 43 -22 171 -63 237 -75 81 -16 283 -28 298 -19 7 4 32 8 57 8
78 0 171 20 293 61 108 37 119 39 134 24 16 -17 59 -202 49 -212 -3 -4 -17 -1
-31 5 -17 8 -95 12 -224 12 -189 0 -200 -1 -231 -22 -42 -28 -87 -132 -70
-160 5 -10 10 -56 10 -103 0 -112 15 -149 72 -175 38 -17 66 -20 226 -20 205
0 234 6 273 61 21 30 24 46 27 166 3 74 9 133 14 133 5 0 8 81 6 205 l-3 204
-40 41 -39 40 -566 0 c-518 0 -568 -1 -600 -18z m454 -444 c12 -17 16 -50 16
-146 0 -118 -1 -124 -25 -148 -25 -25 -25 -25 -207 -23 -237 2 -228 -5 -228
175 0 105 3 131 17 146 15 16 35 18 214 18 193 0 198 -1 213 -22z m686 2 c18
-18 20 -33 20 -144 0 -178 10 -170 -215 -174 -192 -4 -231 3 -241 44 -3 12 -7
74 -7 137 -3 165 -14 157 230 157 180 0 194 -1 213 -20z"/>
<path d="M3563 4405 c-39 -16 -73 -68 -73 -110 0 -69 73 -132 139 -119 17 4
44 22 61 41 82 93 -14 236 -127 188z"/>
<path d="M4260 4413 c-62 -19 -90 -56 -90 -120 0 -36 20 -78 44 -95 6 -5 26
-12 45 -18 90 -25 171 82 127 168 -24 47 -85 78 -126 65z"/>
<path d="M3682 3929 c5 -14 102 -54 168 -68 68 -15 181 -13 255 3 65 14 145
50 145 66 0 6 -106 10 -286 10 -204 0 -285 -3 -282 -11z"/>
<path d="M3487 3722 c-9 -2 -17 -7 -17 -12 0 -4 -23 -32 -52 -61 -46 -49 -168
-221 -168 -238 0 -4 -16 -15 -36 -24 -19 -10 -33 -21 -31 -25 11 -17 -33 -234
-52 -261 -23 -32 -40 -71 -52 -120 -8 -37 0 -61 33 -98 18 -19 19 -27 9 -73
-14 -63 -15 -299 -1 -334 l9 -26 49 25 c89 45 262 73 262 43 0 -7 -15 -24 -33
-37 -37 -28 -97 -110 -97 -133 0 -25 35 -49 97 -65 99 -26 382 2 455 45 28 16
48 57 48 98 0 23 2 24 89 24 l88 0 6 -46 c8 -79 31 -91 222 -119 140 -21 217
-19 297 6 65 21 68 23 68 53 0 44 -29 86 -94 137 -55 43 -73 79 -38 79 35 0
87 -21 122 -49 l37 -30 7 76 c3 42 6 125 6 185 l0 108 25 0 c40 0 101 36 114
67 15 36 -8 130 -43 176 -23 31 -36 85 -51 217 -8 67 -8 66 -44 73 -27 6 -41
23 -96 117 -18 30 -69 93 -130 160 l-60 65 -465 0 c-256 0 -473 -1 -483 -3z
m233 -639 c88 -32 481 -20 552 18 26 14 28 12 28 -26 0 -30 -4 -36 -27 -41
-16 -4 -33 -11 -39 -15 -6 -5 -46 -18 -89 -29 -127 -33 -258 -26 -424 22 -65
19 -75 25 -87 55 -8 18 -14 34 -14 37 0 4 72 -11 100 -21z"/>
<path d="M910 3410 c0 -25 4 -30 25 -30 24 0 24 -1 27 -107 3 -103 4 -108 26
-111 22 -3 22 -2 22 107 l0 110 28 3 c21 2 27 8 27 28 0 24 -2 25 -77 28 l-78
3 0 -31z"/>
<path d="M1107 3433 c-4 -3 -7 -66 -7 -140 l0 -133 25 0 c25 0 25 1 25 80 l0
80 45 0 45 0 0 -80 c0 -79 0 -80 25 -80 25 0 25 1 25 88 0 110 -7 122 -80 127
-53 3 -55 4 -58 34 -3 30 -27 43 -45 24z"/>
<path d="M1352 3364 c-20 -14 -22 -24 -22 -98 0 -60 4 -87 14 -95 9 -7 42 -11
88 -9 65 3 73 5 73 23 0 17 -8 21 -60 25 -44 4 -60 9 -60 20 0 11 14 16 50 18
62 4 75 15 75 63 0 48 -27 69 -90 69 -25 0 -56 -7 -68 -16z"/>
<path d="M237 3243 c-4 -3 -7 -186 -7 -406 0 -360 2 -399 16 -393 9 3 47 6 85
6 l69 0 0 205 c0 115 4 205 9 205 5 0 51 -60 102 -132 93 -132 137 -194 185
-255 21 -29 31 -33 69 -33 l45 0 0 405 0 406 -77 -3 -78 -3 -3 -212 c-1 -123
-6 -213 -12 -213 -5 0 -30 30 -56 68 -27 37 -74 103 -106 147 -31 44 -67 94
-80 112 -77 108 -71 102 -114 103 -22 0 -44 -3 -47 -7z"/>
<path d="M2277 3244 c-4 -4 -7 -47 -7 -96 l0 -88 -130 0 c-229 0 -234 -6 -238
-290 -4 -228 3 -268 51 -304 27 -20 39 -21 245 -18 119 1 223 2 230 2 10 0 12
83 10 398 l-3 397 -75 3 c-42 1 -79 0 -83 -4z m-12 -494 l0 -125 -81 -3 c-110
-4 -114 1 -114 124 0 134 1 135 108 132 l87 -3 0 -125z"/>
<path d="M965 3046 c-68 -30 -70 -35 -73 -276 -5 -320 -7 -317 228 -323 85 -3
183 -2 218 1 l63 5 -3 81 -3 81 -167 3 -168 2 0 30 0 30 139 0 c125 0 141 2
165 21 46 36 60 75 60 169 0 107 -18 155 -68 175 -47 20 -347 21 -391 1z"/>
<path d="M1580 3044 c-19 -8 -44 -27 -55 -42 -19 -25 -20 -43 -20 -292 l0
-265 78 -3 77 -3 1 173 c0 212 4 259 21 269 7 5 44 9 81 9 l68 0 -3 83 -3 82
-105 2 c-75 2 -115 -2 -140 -13z"/>
<path d="M2533 3035 c-40 -28 -53 -71 -53 -173 0 -105 14 -149 58 -179 22 -14
55 -19 167 -23 122 -4 140 -7 143 -22 3 -16 -12 -18 -175 -20 l-178 -3 0 -85
0 -85 200 -3 c230 -3 264 3 294 52 18 28 21 50 21 139 0 115 -7 144 -41 176
-21 19 -35 21 -153 21 -156 0 -178 5 -174 34 3 20 8 21 186 24 l182 2 0 80 0
80 -228 0 c-187 0 -231 -3 -249 -15z"/>
</g>
</svg>
