<?xml version="1.0" standalone="no"?>
<!DOCTYPE svg PUBLIC "-//W3C//DTD SVG 20010904//EN"
 "http://www.w3.org/TR/2001/REC-SVG-20010904/DTD/svg10.dtd">
<svg version="1.0" xmlns="http://www.w3.org/2000/svg"
 width="800.000000pt" height="720.000000pt" viewBox="0 0 800.000000 720.000000"
 preserveAspectRatio="xMidYMid meet">
<metadata>
Created by potrace 1.13, written by Peter Selinger 2001-2015
</metadata>
<g transform="translate(0.000000,720.000000) scale(0.100000,-0.100000)"
fill="#000000" stroke="none">
<path d="M3620 6645 l0 -295 49 0 49 0 4 139 c3 121 6 142 22 160 15 16 29 21
55 19 53 -4 61 -29 61 -185 l0 -133 56 0 56 0 -4 153 c-5 162 -13 194 -54 232
-37 35 -107 35 -158 0 l-36 -24 0 114 0 115 -50 0 -50 0 0 -295z"/>
<path d="M3170 6865 l0 -45 64 0 c58 0 64 -2 70 -22 3 -13 6 -119 6 -235 l0
-213 50 0 50 0 0 235 0 234 68 3 67 3 3 43 3 42 -190 0 -191 0 0 -45z"/>
<path d="M4154 6750 c-39 -16 -83 -71 -99 -122 -19 -65 -19 -101 0 -164 16
-56 43 -86 97 -109 68 -28 227 -12 214 22 -3 8 -6 23 -6 32 0 16 -8 17 -73 13
-46 -3 -82 0 -95 7 -25 13 -56 67 -47 81 4 6 59 10 126 10 l119 0 0 43 c0 68
-19 119 -60 159 -35 36 -41 38 -96 37 -33 0 -68 -4 -80 -9z"/>
<path d="M2786 6079 c-119 -29 -286 -136 -483 -310 -537 -473 -1383 -1651
-2018 -2809 l-57 -104 5 -111 c5 -123 20 -173 79 -276 115 -200 352 -333 743
-418 226 -49 457 -76 960 -110 502 -35 786 -81 915 -146 28 -14 104 -59 168
-99 359 -225 792 -401 1169 -475 485 -96 849 -106 1293 -35 274 44 399 75 660
166 671 235 1221 662 1496 1163 19 34 34 71 34 82 0 115 -313 730 -633 1243
-369 591 -722 1052 -1086 1420 -365 369 -645 566 -965 679 -93 33 -286 66
-345 58 -20 -2 -101 -27 -181 -55 -276 -97 -545 -162 -674 -162 -52 0 -90 7
-150 29 -45 17 -214 75 -376 131 -162 55 -320 110 -350 122 -62 25 -146 32
-204 17z m187 -25 c39 -14 113 -39 162 -56 157 -51 339 -119 354 -131 8 -7 43
-55 77 -108 62 -95 62 -96 279 -763 119 -368 214 -670 211 -673 -9 -9 -416 25
-434 36 -10 6 -91 255 -134 409 -14 49 -28 82 -36 82 -7 0 -45 -14 -85 -31
-40 -17 -112 -46 -162 -65 -138 -54 -205 -86 -205 -98 0 -6 9 -105 21 -221
l21 -209 -29 -23 c-15 -13 -48 -35 -73 -50 -25 -14 -91 -54 -147 -89 -56 -35
-104 -64 -107 -64 -8 0 -15 50 -26 180 -5 69 -17 204 -25 300 -8 96 -24 288
-35 425 -11 138 -27 320 -35 405 -7 85 -17 198 -20 250 l-7 96 57 177 c63 195
55 184 164 223 85 30 125 30 214 -2z m2169 -157 c111 -46 232 -110 245 -130 4
-6 6 -39 5 -72 -4 -64 -13 -90 -222 -605 -62 -151 -154 -378 -205 -505 -51
-126 -100 -247 -109 -267 -16 -37 -17 -38 -72 -38 -115 0 -449 22 -458 30 -4
5 -39 116 -77 247 -38 131 -99 339 -135 463 -174 597 -174 597 -174 675 l0 74
38 6 c54 9 196 42 277 65 39 11 78 20 87 20 11 0 38 -31 72 -82 l54 -83 27
-160 c100 -604 124 -748 128 -751 2 -3 7 15 11 38 4 24 20 97 36 163 16 66 50
212 75 325 24 113 60 269 79 347 l33 142 64 76 c74 88 61 87 221 22z m-2786
-279 c80 -84 91 -100 111 -163 43 -139 55 -217 55 -345 0 -137 -24 -261 -77
-395 -32 -82 -115 -227 -174 -305 l-42 -55 28 -20 c58 -41 133 -128 163 -189
31 -63 68 -231 57 -260 -6 -15 -16 -20 -287 -169 -122 -67 -177 -92 -182 -84
-4 7 -8 32 -8 57 0 109 -71 271 -140 320 -45 32 -107 50 -171 50 l-59 0 0
-320 0 -320 -122 -61 c-175 -88 -441 -210 -446 -204 -2 2 54 239 127 526 72
288 129 524 127 526 -2 2 -37 -36 -78 -84 -41 -49 -240 -283 -442 -520 -202
-238 -369 -433 -372 -433 -14 0 281 493 474 795 286 446 672 977 928 1281 139
165 420 464 435 464 3 0 46 -42 95 -92z m3618 -320 c106 -106 224 -229 262
-273 292 -336 542 -675 817 -1107 145 -228 387 -644 425 -733 l13 -30 -24 25
c-13 14 -131 151 -263 305 -131 154 -315 370 -409 480 -94 110 -332 389 -529
620 -197 231 -364 426 -371 433 -10 11 -26 -8 -84 -107 -39 -66 -71 -123 -71
-126 0 -6 247 -290 522 -601 60 -67 108 -127 108 -133 0 -7 -40 -11 -124 -11
l-125 0 -242 263 c-133 144 -245 263 -249 265 -6 2 -120 -191 -120 -204 0 -3
125 -148 278 -322 394 -449 475 -542 471 -546 -2 -2 -140 99 -306 223 -165
124 -397 291 -515 370 -117 79 -224 152 -237 163 -17 13 -41 18 -82 18 -33 0
-59 2 -59 5 0 9 51 116 231 482 94 192 199 409 235 483 l65 135 87 57 c48 31
90 57 95 58 4 0 94 -87 201 -192z m-2083 -988 c162 -16 231 -72 278 -225 19
-62 21 -92 21 -309 0 -220 -7 -306 -25 -324 -4 -4 -246 -9 -539 -10 -612 -4
-591 -7 -629 75 -19 43 -22 68 -25 244 -2 108 1 243 7 300 12 122 2 111 174
206 l112 63 270 -6 c149 -2 309 -9 356 -14z m986 -46 l291 -7 114 -79 c62 -44
120 -84 128 -88 13 -7 15 -49 15 -282 0 -304 -1 -309 -68 -345 -29 -17 -77
-18 -573 -21 -497 -2 -542 -1 -555 14 -11 13 -15 68 -17 248 -5 347 14 444
101 535 l42 43 115 -6 c63 -3 246 -9 407 -12z m-1928 -256 c-1 -73 -4 -171 -7
-217 l-7 -84 -113 -49 -113 -48 -337 2 -337 3 135 74 c222 123 452 256 613
356 84 51 155 94 160 94 4 1 7 -59 6 -131z m2616 -22 c118 -79 609 -445 614
-458 2 -6 -94 -8 -270 -6 -258 3 -276 4 -314 25 -106 57 -136 132 -143 357 -4
133 -2 157 9 151 8 -5 55 -36 104 -69z m-2611 -318 c3 -13 7 -46 10 -75 7 -70
39 -130 79 -148 18 -8 84 -18 147 -22 l115 -8 3 -907 c1 -632 -1 -908 -8 -908
-18 0 -68 28 -197 109 l-123 76 0 222 0 222 -32 5 c-128 21 -411 57 -421 53
-7 -2 -32 -84 -58 -183 l-45 -179 -40 1 c-61 1 -318 24 -323 29 -6 6 43 165
229 740 27 83 90 281 140 440 51 160 101 315 112 346 l19 56 182 76 c100 42
188 76 194 76 7 1 15 -9 17 -21z m-659 -444 c-42 -115 -87 -243 -102 -284 -14
-41 -30 -79 -34 -83 -4 -5 -63 16 -131 46 -150 66 -230 92 -333 106 -201 28
-339 -59 -374 -238 -17 -84 -1 -142 54 -197 88 -87 246 -136 578 -179 26 -4
47 -11 47 -18 0 -7 -29 -100 -63 -207 l-64 -195 -114 2 c-133 3 -456 37 -579
61 l-85 17 -37 75 c-52 105 -68 187 -75 382 -4 130 -2 195 12 290 9 67 20 130
24 140 5 13 67 39 216 89 286 97 802 290 1060 397 46 19 71 25 73 17 1 -6 -31
-105 -73 -221z m1482 -12 c51 -114 129 -288 174 -387 44 -99 123 -277 176
-395 52 -118 105 -237 118 -265 l23 -50 2 560 1 560 32 -40 c59 -73 142 -157
205 -207 l62 -50 0 -684 0 -684 -107 1 c-60 0 -128 4 -153 7 l-45 7 -167 300
c-138 247 -304 567 -356 685 -8 18 -11 -110 -11 -492 -1 -304 3 -519 8 -522
14 -9 219 -43 391 -65 538 -69 1107 -67 1479 3 148 28 314 82 431 141 98 49
108 60 120 135 14 93 13 143 -9 272 -24 139 -64 264 -131 404 -27 59 -50 111
-50 116 0 6 61 7 153 3 l152 -7 38 -41 c89 -98 157 -247 182 -399 8 -50 17
-94 21 -97 13 -13 90 87 107 141 23 73 22 200 -3 312 -11 49 -19 91 -17 92 1
2 51 10 111 19 59 9 139 27 178 41 38 14 73 23 76 19 4 -4 7 -106 7 -228 0
-241 -12 -330 -62 -477 -56 -165 -167 -332 -255 -384 -90 -53 -320 -151 -483
-206 -255 -87 -430 -127 -751 -171 -223 -30 -620 -30 -839 0 -392 55 -702 140
-1001 274 l-119 53 -3 957 -2 957 112 0 113 0 92 -208z m1028 83 c159 -41 228
-167 238 -433 l4 -114 -36 7 c-48 9 -240 88 -321 132 -168 91 -335 243 -398
361 l-33 62 243 0 c186 0 258 -4 303 -15z m1015 -207 c58 -17 108 -57 132
-107 20 -41 23 -64 26 -220 l4 -174 -112 7 c-208 12 -474 55 -680 108 -63 16
-119 33 -124 38 -13 13 11 153 35 211 36 83 111 134 219 148 76 10 457 2 500
-11z m618 -107 c128 -10 152 -20 189 -87 23 -41 43 -159 43 -249 l0 -53 -82
-7 c-46 -3 -195 -5 -333 -3 l-250 3 0 166 c1 234 4 238 200 238 66 0 171 -4
233 -8z m-1417 -245 c63 -19 134 -40 159 -46 151 -37 230 -53 355 -71 163 -25
205 -43 259 -118 168 -229 147 -557 -47 -737 -32 -30 -81 -66 -107 -79 -75
-38 -207 -73 -358 -94 -146 -21 -478 -36 -537 -25 l-35 6 0 644 0 643 98 -44
c54 -24 150 -59 213 -79z"/>
<path d="M3018 5703 c-46 -52 -69 -307 -51 -563 8 -114 8 -115 33 -114 25 1
355 116 367 127 17 17 -138 376 -206 475 -61 90 -108 115 -143 75z"/>
<path d="M1851 4838 l-221 -253 0 -147 c0 -169 -9 -157 101 -134 240 51 369
255 369 580 0 116 -9 206 -21 206 -4 0 -107 -114 -228 -252z"/>
<path d="M2818 3233 c-30 -31 -67 -101 -97 -183 -41 -113 -138 -477 -129 -485
4 -4 201 -32 283 -40 33 -4 68 -9 78 -11 15 -5 17 5 17 108 0 290 -39 562 -88
621 -21 24 -34 22 -64 -10z"/>
<path d="M5030 2131 l0 -361 103 0 c280 0 433 121 445 351 6 126 -14 186 -86
259 -85 84 -139 103 -319 108 l-143 4 0 -361z"/>
<path d="M3325 1158 c-2 -7 -36 -125 -75 -263 -39 -137 -73 -258 -76 -267 -5
-16 2 -18 48 -18 l54 0 18 70 19 71 80 -3 80 -3 20 -67 20 -68 53 0 c30 0 54
3 54 8 0 4 -22 84 -49 177 -27 94 -61 216 -76 273 l-28 102 -69 0 c-46 0 -70
-4 -73 -12z m100 -197 c14 -56 25 -106 25 -112 0 -5 -26 -9 -59 -9 l-58 0 24
103 c28 120 32 132 39 125 2 -3 16 -51 29 -107z"/>
<path d="M3695 1007 c-3 -7 -4 -136 -3 -287 l3 -275 50 0 50 0 3 96 3 96 36
-18 c98 -50 198 9 224 130 22 102 -11 213 -74 251 -46 29 -115 26 -161 -5
l-37 -25 -9 25 c-8 20 -16 25 -45 25 -20 0 -38 -6 -40 -13z m231 -91 c24 -20
28 -33 32 -88 3 -47 0 -74 -12 -97 -32 -61 -102 -67 -131 -11 -30 59 -13 197
27 213 29 12 58 6 84 -17z"/>
<path d="M4155 1007 c-3 -7 -4 -136 -3 -287 l3 -275 50 0 50 0 3 97 3 97 35
-21 c27 -16 46 -19 81 -15 58 6 91 32 123 92 50 99 23 259 -52 305 -47 29
-115 27 -162 -5 -20 -14 -39 -25 -41 -25 -3 0 -5 11 -5 25 0 23 -4 25 -40 25
-24 0 -43 -5 -45 -13z m230 -91 c46 -46 45 -163 -2 -210 -32 -33 -67 -33 -98
-1 -22 22 -25 32 -25 105 0 73 3 83 25 105 31 32 69 32 100 1z"/>
</g>
</svg>
